<svg width="24" height="24" viewBox="0 0 24 24" fill="none" xmlns="http://www.w3.org/2000/svg">
<g id="edit" clip-path="url(#clip0_2_2458)">
<path id="Vector" d="M10.9998 4.00037H3.99976C3.46932 4.00037 2.96061 4.21108 2.58554 4.58615C2.21047 4.96123 1.99976 5.46993 1.99976 6.00037V20.0004C1.99976 20.5308 2.21047 21.0395 2.58554 21.4146C2.96061 21.7897 3.46932 22.0004 3.99976 22.0004H17.9998C18.5302 22.0004 19.0389 21.7897 19.414 21.4146C19.789 21.0395 19.9998 20.5308 19.9998 20.0004V13.0004" stroke="#212529" stroke-width="2" stroke-linecap="round" stroke-linejoin="round"/>
<path id="Vector_2" d="M18.4998 2.50035C18.8976 2.10252 19.4371 1.87903 19.9998 1.87903C20.5624 1.87903 21.1019 2.10252 21.4998 2.50035C21.8976 2.89817 22.1211 3.43774 22.1211 4.00035C22.1211 4.56296 21.8976 5.10252 21.4998 5.50035L11.9998 15.0003L7.99976 16.0003L8.99976 12.0003L18.4998 2.50035Z" stroke="#212529" stroke-width="2" stroke-linecap="round" stroke-linejoin="round"/>
</g>
<defs>
<clipPath id="clip0_2_2458">
<rect width="24" height="24" fill="white" transform="translate(-0.000244141 0.000366211)"/>
</clipPath>
</defs>
</svg>
