<svg width="24" height="24" viewBox="0 0 24 24" fill="none" xmlns="http://www.w3.org/2000/svg">
<g id="trash-2">
<path id="Vector" d="M2.99976 6.00037H4.99976H20.9998" stroke="#E97369" stroke-width="2" stroke-linecap="round" stroke-linejoin="round"/>
<path id="Vector_2" d="M18.9998 6.00037V20.0004C18.9998 20.5308 18.789 21.0395 18.414 21.4146C18.0389 21.7897 17.5302 22.0004 16.9998 22.0004H6.99976C6.46932 22.0004 5.96061 21.7897 5.58554 21.4146C5.21047 21.0395 4.99976 20.5308 4.99976 20.0004V6.00037M7.99976 6.00037V4.00037C7.99976 3.46993 8.21047 2.96123 8.58554 2.58615C8.96062 2.21108 9.46932 2.00037 9.99976 2.00037H13.9998C14.5302 2.00037 15.0389 2.21108 15.414 2.58615C15.789 2.96123 15.9998 3.46993 15.9998 4.00037V6.00037" stroke="#E97369" stroke-width="2" stroke-linecap="round" stroke-linejoin="round"/>
<path id="Vector_3" d="M9.99976 11.0004V17.0004" stroke="#E97369" stroke-width="2" stroke-linecap="round" stroke-linejoin="round"/>
<path id="Vector_4" d="M13.9998 11.0004V17.0004" stroke="#E97369" stroke-width="2" stroke-linecap="round" stroke-linejoin="round"/>
</g>
</svg>
